<svg width="558" height="102" viewBox="0 0 558 102" fill="none" xmlns="http://www.w3.org/2000/svg">
<rect x="229.5" y="1.5" width="99" height="99" rx="10.5" fill="#F2F2F3" stroke="#E4E4E7" stroke-width="3"/>
<path d="M284.735 60.544H273.207L271.359 66H263.483L274.659 35.112H283.371L294.547 66H286.583L284.735 60.544ZM282.799 54.736L278.971 43.428L275.187 54.736H282.799Z" fill="black"/>
<rect x="115.5" y="1.5" width="99" height="99" rx="10.5" fill="#F2F2F3" stroke="#E4E4E7" stroke-width="3"/>
<path d="M171.926 50.16C173.715 50.5413 175.153 51.436 176.238 52.844C177.323 54.2227 177.866 55.8067 177.866 57.596C177.866 60.1773 176.957 62.2307 175.138 63.756C173.349 65.252 170.841 66 167.614 66H153.226V35.112H167.13C170.269 35.112 172.718 35.8307 174.478 37.268C176.267 38.7053 177.162 40.656 177.162 43.12C177.162 44.9387 176.678 46.4493 175.71 47.652C174.771 48.8547 173.51 49.6907 171.926 50.16ZM160.75 47.608H165.678C166.91 47.608 167.849 47.344 168.494 46.816C169.169 46.2587 169.506 45.452 169.506 44.396C169.506 43.34 169.169 42.5333 168.494 41.976C167.849 41.4187 166.91 41.14 165.678 41.14H160.75V47.608ZM166.294 59.928C167.555 59.928 168.523 59.6493 169.198 59.092C169.902 58.5053 170.254 57.6693 170.254 56.584C170.254 55.4987 169.887 54.648 169.154 54.032C168.45 53.416 167.467 53.108 166.206 53.108H160.75V59.928H166.294Z" fill="black"/>
<rect x="1.5" y="1.5" width="99" height="99" rx="10.5" fill="#10B981" stroke="#E4E4E7" stroke-width="3"/>
<path d="M56.7353 60.544H45.2073L43.3593 66H35.4833L46.6593 35.112H55.3713L66.5473 66H58.5833L56.7353 60.544ZM54.7993 54.736L50.9713 43.428L47.1873 54.736H54.7993Z" fill="black"/>
<rect x="457.5" y="1.5" width="99" height="99" rx="10.5" fill="#F2F2F3" stroke="#E4E4E7" stroke-width="3"/>
<path d="M505.35 41.14V47.388H515.426V53.196H505.35V59.972H516.746V66H497.826V35.112H516.746V41.14H505.35Z" fill="black"/>
<rect x="343.5" y="1.5" width="99" height="99" rx="10.5" fill="#F2F2F3" stroke="#E4E4E7" stroke-width="3"/>
<path d="M393.369 66.308C391.11 66.308 389.086 65.9413 387.297 65.208C385.508 64.4747 384.07 63.3893 382.985 61.952C381.929 60.5147 381.372 58.784 381.313 56.76H389.321C389.438 57.904 389.834 58.784 390.509 59.4C391.184 59.9867 392.064 60.28 393.149 60.28C394.264 60.28 395.144 60.0307 395.789 59.532C396.434 59.004 396.757 58.2853 396.757 57.376C396.757 56.6133 396.493 55.9827 395.965 55.484C395.466 54.9853 394.836 54.5747 394.073 54.252C393.34 53.9293 392.284 53.5627 390.905 53.152C388.91 52.536 387.282 51.92 386.021 51.304C384.76 50.688 383.674 49.7787 382.765 48.576C381.856 47.3733 381.401 45.804 381.401 43.868C381.401 40.9933 382.442 38.7493 384.525 37.136C386.608 35.4933 389.321 34.672 392.665 34.672C396.068 34.672 398.81 35.4933 400.893 37.136C402.976 38.7493 404.09 41.008 404.237 43.912H396.097C396.038 42.9147 395.672 42.1373 394.997 41.58C394.322 40.9933 393.457 40.7 392.401 40.7C391.492 40.7 390.758 40.9493 390.201 41.448C389.644 41.9173 389.365 42.6067 389.365 43.516C389.365 44.5133 389.834 45.2907 390.773 45.848C391.712 46.4053 393.178 47.0067 395.173 47.652C397.168 48.3267 398.781 48.972 400.013 49.588C401.274 50.204 402.36 51.0987 403.269 52.272C404.178 53.4453 404.633 54.956 404.633 56.804C404.633 58.564 404.178 60.1627 403.269 61.6C402.389 63.0373 401.098 64.1813 399.397 65.032C397.696 65.8827 395.686 66.308 393.369 66.308Z" fill="black"/>
</svg>
