<svg width="558" height="102" viewBox="0 0 558 102" fill="none" xmlns="http://www.w3.org/2000/svg">
<rect x="1.5" y="1.5" width="99" height="99" rx="10.5" fill="#151516" stroke="#27272A" stroke-width="3"/>
<path d="M51.252 60.192H61.108V66H43.728V35.112H51.252V60.192Z" fill="white"/>
<rect x="115.5" y="1.5" width="99" height="99" rx="10.5" fill="#151516" stroke="#27272A" stroke-width="3"/>
<path d="M170.956 60.544H159.428L157.58 66H149.704L160.88 35.112H169.592L180.768 66H172.804L170.956 60.544ZM169.02 54.736L165.192 43.428L161.408 54.736H169.02Z" fill="white"/>
<rect x="229.5" y="1.5" width="99" height="99" rx="10.5" fill="#151516" stroke="#27272A" stroke-width="3"/>
<path d="M290.95 35.112V41.14H282.766V66H275.242V41.14H267.058V35.112H290.95Z" fill="white"/>
<rect x="343.5" y="1.5" width="99" height="99" rx="10.5" fill="#151516" stroke="#27272A" stroke-width="3"/>
<path d="M391.35 41.14V47.388H401.426V53.196H391.35V59.972H402.746V66H383.826V35.112H402.746V41.14H391.35Z" fill="#A1A1AA"/>
<rect x="457.5" y="1.5" width="99" height="99" rx="10.5" fill="#151516" stroke="#27272A" stroke-width="3"/>
<path d="M511.128 66L504.704 54.34H502.9V66H495.376V35.112H508.004C510.439 35.112 512.507 35.5373 514.208 36.388C515.939 37.2387 517.23 38.412 518.08 39.908C518.931 41.3747 519.356 43.0173 519.356 44.836C519.356 46.8893 518.77 48.7227 517.596 50.336C516.452 51.9493 514.751 53.0933 512.492 53.768L519.62 66H511.128ZM502.9 49.016H507.564C508.943 49.016 509.97 48.6787 510.644 48.004C511.348 47.3293 511.7 46.376 511.7 45.144C511.7 43.9707 511.348 43.0467 510.644 42.372C509.97 41.6973 508.943 41.36 507.564 41.36H502.9V49.016Z" fill="white"/>
</svg>
