<svg width="558" height="102" viewBox="0 0 558 102" fill="none" xmlns="http://www.w3.org/2000/svg">
<rect x="229.5" y="1.5" width="99" height="99" rx="10.5" fill="#151516" stroke="#27272A" stroke-width="3"/>
<path d="M277.35 41.14V47.388H287.426V53.196H277.35V59.972H288.746V66H269.826V35.112H288.746V41.14H277.35Z" fill="white"/>
<rect x="115.5" y="1.5" width="99" height="99" rx="10.5" fill="#F19C0B" stroke="#27272A" stroke-width="3"/>
<path d="M164.768 60.192H174.624V66H157.244V35.112H164.768V60.192Z" fill="white"/>
<rect x="1.5" y="1.5" width="99" height="99" rx="10.5" fill="#151516" stroke="#27272A" stroke-width="3"/>
<path d="M35.6942 50.512C35.6942 47.4613 36.3542 44.748 37.6742 42.372C38.9942 39.9667 40.8275 38.104 43.1742 36.784C45.5502 35.4347 48.2342 34.76 51.2262 34.76C54.8929 34.76 58.0315 35.728 60.6422 37.664C63.2529 39.6 64.9982 42.24 65.8782 45.584H57.6062C56.9902 44.2933 56.1102 43.3107 54.9662 42.636C53.8515 41.9613 52.5755 41.624 51.1382 41.624C48.8209 41.624 46.9435 42.4307 45.5062 44.044C44.0689 45.6573 43.3502 47.8133 43.3502 50.512C43.3502 53.2107 44.0689 55.3667 45.5062 56.98C46.9435 58.5933 48.8209 59.4 51.1382 59.4C52.5755 59.4 53.8515 59.0627 54.9662 58.388C56.1102 57.7133 56.9902 56.7307 57.6062 55.44H65.8782C64.9982 58.784 63.2529 61.424 60.6422 63.36C58.0315 65.2667 54.8929 66.22 51.2262 66.22C48.2342 66.22 45.5502 65.56 43.1742 64.24C40.8275 62.8907 38.9942 61.028 37.6742 58.652C36.3542 56.276 35.6942 53.5627 35.6942 50.512Z" fill="white"/>
<rect x="457.5" y="1.5" width="99" height="99" rx="10.5" fill="#151516" stroke="#27272A" stroke-width="3"/>
<path d="M511.128 66L504.704 54.34H502.9V66H495.376V35.112H508.004C510.439 35.112 512.507 35.5373 514.208 36.388C515.939 37.2387 517.23 38.412 518.08 39.908C518.931 41.3747 519.356 43.0173 519.356 44.836C519.356 46.8893 518.77 48.7227 517.596 50.336C516.452 51.9493 514.751 53.0933 512.492 53.768L519.62 66H511.128ZM502.9 49.016H507.564C508.943 49.016 509.97 48.6787 510.644 48.004C511.348 47.3293 511.7 46.376 511.7 45.144C511.7 43.9707 511.348 43.0467 510.644 42.372C509.97 41.6973 508.943 41.36 507.564 41.36H502.9V49.016Z" fill="white"/>
<rect x="343.5" y="1.5" width="99" height="99" rx="10.5" fill="#151516" stroke="#27272A" stroke-width="3"/>
<path d="M398.735 60.544H387.207L385.359 66H377.483L388.659 35.112H397.371L408.547 66H400.583L398.735 60.544ZM396.799 54.736L392.971 43.428L389.187 54.736H396.799Z" fill="white"/>
</svg>
